<?xml version="1.0" encoding="UTF-8" standalone="no"?>
<!-- Created with Inkscape (http://www.inkscape.org/) -->
<svg xmlns:svg="http://www.w3.org/2000/svg" xmlns="http://www.w3.org/2000/svg" version="1.0" width="8.75" height="8.75" id="svg2403" xml:space="preserve">
  <defs id="defs2406"/>
  <g transform="matrix(0.125,0,0,-0.125,0,8.75)" id="g2412">
    <g id="g2414">
      <path d="M 52.5195,38.3462 C 52.5195,42.1055 51.0259,45.7102 48.3682,48.3682 C 45.7102,51.0259 42.1055,52.5195 38.3462,52.5195 C 34.5872,52.5195 30.9824,51.0259 28.3245,48.3682 C 25.6667,45.7102 24.1731,42.1055 24.1731,38.3462 C 24.1731,34.5872 25.6667,30.9824 28.3245,28.3245 C 30.9824,25.6667 34.5872,24.1731 38.3462,24.1731 C 42.1055,24.1731 45.7102,25.6667 48.3682,28.3245 C 51.0259,30.9824 52.5195,34.5872 52.5195,38.3462" id="path2416" style="fill:#000000;fill-opacity:1;fill-rule:nonzero;stroke:none"/>
      <path d="M 52.5195,38.3462 C 52.5195,42.1055 51.0259,45.7102 48.3682,48.3682 C 45.7102,51.0259 42.1055,52.5195 38.3462,52.5195 C 34.5872,52.5195 30.9824,51.0259 28.3245,48.3682 C 25.6667,45.7102 24.1731,42.1055 24.1731,38.3462 C 24.1731,34.5872 25.6667,30.9824 28.3245,28.3245 C 30.9824,25.6667 34.5872,24.1731 38.3462,24.1731 C 42.1055,24.1731 45.7102,25.6667 48.3682,28.3245 C 51.0259,30.9824 52.5195,34.5872 52.5195,38.3462 z" id="path2418" style="fill:none;stroke:#000000;stroke-width:5;stroke-linecap:butt;stroke-linejoin:round;stroke-miterlimit:10;stroke-dasharray:none;stroke-opacity:1"/>
      <path d="M 10,38.3462 L 66.6926,38.3462" id="path2420" style="fill:none;stroke:#000000;stroke-width:5;stroke-linecap:round;stroke-linejoin:round;stroke-miterlimit:10;stroke-dasharray:none;stroke-opacity:1"/>
      <path d="M 38.3462,10 L 38.3462,66.6926" id="path2422" style="fill:none;stroke:#000000;stroke-width:5;stroke-linecap:round;stroke-linejoin:round;stroke-miterlimit:10;stroke-dasharray:none;stroke-opacity:1"/>
    </g>
  </g>
</svg>
